<svg width="145" height="32" viewBox="0 0 145 32" fill="none" xmlns="http://www.w3.org/2000/svg">
<path d="M26.4208 10.5311L21.5811 0H9.83723H4.90056L1.22609 7.99335L0 10.6641H14.7397L19.6402 21.3321L20.5489 23.3052L24.5446 32H36.2885L32.2908 23.3052L31.386 21.3321L26.4816 10.6641H26.3581L26.4208 10.5311Z" fill="white"/>
<path d="M27.334 11.42L27.3995 11.5643H39.9248L45.2061 0H32.5477L27.334 11.42Z" fill="white"/>
<path d="M59.1738 3.73914V28.2571H53.8855V8.88872L47.4395 12.8825V8.71383L55.4252 3.73914H59.1738Z" fill="white"/>
<path d="M87.4768 8.08462H78.1927V28.2609H72.5546V8.08462H63.2705V3.74103H87.4749V8.08462H87.4768Z" fill="white"/>
<path d="M100.435 7.97628L93.5004 23.9135H100.752V28.2571H85.6211L96.9715 3.73914H103.906L115.256 28.2571H109.23L100.439 7.97628H100.435Z" fill="white"/>
<path d="M144.027 11.972C144.027 17.5417 140.314 20.2752 133.553 20.2752H124.761V28.261H119.087V16.002H133.203C136.495 16.002 138.246 14.6694 138.246 11.9758C138.246 9.28224 136.494 8.05235 133.203 8.05235H119.087V3.74487H134.218C140.908 3.74487 144.025 7.03726 144.025 11.9758V11.972H144.027Z" fill="white"/>
</svg>
