<svg width="234" height="80" viewBox="0 0 234 80" fill="none" xmlns="http://www.w3.org/2000/svg">
<path d="M71.4074 34.5311L66.5677 24H54.8238H49.8871L46.2127 31.9933L44.9866 34.6641H59.7263L64.6268 45.3321L65.5355 47.3052L69.5312 56H81.275L77.2774 47.3052L76.3726 45.3321L71.4682 34.6641H71.3447L71.4074 34.5311Z" fill="#2D2D33"/>
<path d="M72.3208 35.42L72.3864 35.5643H84.9116L90.193 24H77.5345L72.3208 35.42Z" fill="#2E95F4"/>
<path d="M104.16 27.739V52.257H98.872V32.8886L92.426 36.8824V32.7137L100.412 27.739H104.16Z" fill="#2D2D33"/>
<path d="M132.463 32.0846H123.179V52.2609H117.541V32.0846H108.257V27.741H132.461V32.0846H132.463Z" fill="#2D2D33"/>
<path d="M145.421 31.9762L138.487 47.9134H145.739V52.257H130.608L141.958 27.739H148.893L160.243 52.257H154.217L145.425 31.9762H145.421Z" fill="#2D2D33"/>
<path d="M189.013 35.9718C189.013 41.5415 185.301 44.275 178.539 44.275H169.747V52.2607H164.073V40.0017H178.189C181.482 40.0017 183.233 38.6692 183.233 35.9756C183.233 33.282 181.48 32.0521 178.189 32.0521H164.073V27.7446H179.205C185.894 27.7446 189.011 31.037 189.011 35.9756V35.9718H189.013Z" fill="#2D2D33"/>
</svg>
